<svg width="789" height="92" viewBox="0 0 789 92" fill="none" xmlns="http://www.w3.org/2000/svg">
<path d="M736.092 89.728V88.448L738.012 87.936C739.719 87.424 740.871 86.656 741.468 85.632C742.151 84.608 742.492 83.2853 742.492 81.664V41.6C742.492 39.7227 742.151 38.3573 741.468 37.504C740.871 36.5653 739.719 35.9253 738.012 35.584L736.092 35.072V33.792L758.108 26.368L759.388 27.648L760.54 38.656V39.68C761.735 37.2907 763.271 35.1147 765.148 33.152C767.111 31.104 769.244 29.44 771.548 28.16C773.937 26.88 776.284 26.24 778.588 26.24C781.831 26.24 784.305 27.136 786.012 28.928C787.719 30.72 788.572 32.9813 788.572 35.712C788.572 38.6133 787.719 40.8747 786.012 42.496C784.391 44.032 782.428 44.8 780.124 44.8C776.54 44.8 773.383 43.008 770.652 39.424L770.396 39.168C769.543 37.9733 768.561 37.3333 767.452 37.248C766.343 37.0773 765.319 37.5893 764.38 38.784C763.527 39.552 762.801 40.4907 762.204 41.6C761.692 42.624 761.18 43.8187 760.668 45.184V80.896C760.668 84.3093 762.161 86.4427 765.148 87.296L769.244 88.448V89.728H736.092Z" fill="black"/>
<path d="M703.345 26.24C708.892 26.24 713.628 27.392 717.553 29.696C721.478 31.9147 724.465 34.9867 726.513 38.912C728.646 42.752 729.713 47.1467 729.713 52.096C729.713 53.0347 729.67 54.016 729.585 55.04C729.5 55.9787 729.329 56.832 729.073 57.6H690.929C691.014 66.816 692.636 73.472 695.793 77.568C699.036 81.5787 703.814 83.584 710.129 83.584C714.396 83.584 717.852 82.9013 720.497 81.536C723.142 80.1707 725.617 78.1653 727.921 75.52L729.201 76.672C726.556 81.3653 723.014 85.0347 718.577 87.68C714.225 90.3253 708.977 91.648 702.833 91.648C696.774 91.648 691.398 90.368 686.705 87.808C682.012 85.1627 678.342 81.408 675.697 76.544C673.052 71.68 671.729 65.8773 671.729 59.136C671.729 52.1387 673.265 46.208 676.337 41.344C679.409 36.3947 683.334 32.64 688.113 30.08C692.977 27.52 698.054 26.24 703.345 26.24ZM702.961 28.8C700.486 28.8 698.353 29.568 696.561 31.104C694.854 32.5547 693.489 35.2 692.465 39.04C691.526 42.7947 691.014 48.128 690.929 55.04H712.817C713.67 45.7387 713.329 39.04 711.793 34.944C710.257 30.848 707.313 28.8 702.961 28.8Z" fill="black"/>
<path d="M634.976 89.728V88.448L636.512 87.936C639.584 86.912 641.12 84.7787 641.12 81.536V13.056C641.12 11.3493 640.779 10.0693 640.096 9.216C639.413 8.27733 638.219 7.59467 636.512 7.168L634.848 6.784V5.504L658.272 0L659.808 1.152L659.296 19.072V62.848C659.296 66.0053 659.296 69.1627 659.296 72.32C659.381 75.392 659.424 78.464 659.424 81.536C659.424 83.2427 659.765 84.6507 660.448 85.76C661.131 86.784 662.283 87.552 663.904 88.064L665.568 88.448V89.728H634.976Z" fill="black"/>
<path d="M587.03 91.648C582.081 91.648 577.899 90.24 574.486 87.424C571.158 84.608 569.494 80.5547 569.494 75.264C569.494 71.2533 571.542 67.584 575.638 64.256C579.734 60.8427 586.177 58.2827 594.966 56.576C596.331 56.32 597.867 56.064 599.574 55.808C601.281 55.4667 603.073 55.1253 604.95 54.784V44.672C604.95 38.8693 604.225 34.816 602.774 32.512C601.409 30.1227 599.233 28.928 596.246 28.928C594.198 28.928 592.577 29.6107 591.382 30.976C590.187 32.256 589.419 34.5173 589.078 37.76L588.822 39.168C588.651 42.8373 587.755 45.5253 586.134 47.232C584.513 48.9387 582.507 49.792 580.118 49.792C577.899 49.792 576.065 49.1093 574.614 47.744C573.163 46.3787 572.438 44.544 572.438 42.24C572.438 38.7413 573.633 35.7973 576.022 33.408C578.497 31.0187 581.739 29.2267 585.75 28.032C589.761 26.8373 594.113 26.24 598.806 26.24C606.401 26.24 612.246 28.1173 616.342 31.872C620.523 35.5413 622.614 41.5573 622.614 49.92V78.208C622.614 82.048 624.406 83.968 627.99 83.968H630.806L631.958 84.992C630.337 87.04 628.545 88.6187 626.582 89.728C624.705 90.8373 622.017 91.392 618.518 91.392C614.763 91.392 611.777 90.5387 609.558 88.832C607.425 87.04 606.017 84.6933 605.334 81.792C602.774 84.5227 600.129 86.8693 597.398 88.832C594.753 90.7093 591.297 91.648 587.03 91.648ZM594.838 83.84C596.545 83.84 598.123 83.456 599.574 82.688C601.11 81.8347 602.902 80.5547 604.95 78.848V57.344C604.097 57.5147 603.243 57.6853 602.39 57.856C601.537 58.0267 600.555 58.1973 599.446 58.368C595.521 59.392 592.363 61.1413 589.974 63.616C587.67 66.0053 586.518 69.248 586.518 73.344C586.518 76.8427 587.329 79.488 588.95 81.28C590.571 82.9867 592.534 83.84 594.838 83.84Z" fill="black"/>
<path d="M531.726 91.648C525.241 91.648 519.609 90.3253 514.83 87.68C510.051 84.9493 506.339 81.1093 503.694 76.16C501.134 71.2107 499.854 65.408 499.854 58.752C499.854 52.096 501.219 46.336 503.95 41.472C506.766 36.608 510.563 32.8533 515.342 30.208C520.206 27.5627 525.667 26.24 531.726 26.24C537.785 26.24 543.203 27.5627 547.982 30.208C552.761 32.768 556.515 36.48 559.246 41.344C562.062 46.208 563.47 52.0107 563.47 58.752C563.47 65.4933 562.147 71.3387 559.502 76.288C556.942 81.152 553.273 84.9493 548.494 87.68C543.801 90.3253 538.211 91.648 531.726 91.648ZM531.726 89.088C534.713 89.088 537.102 88.2347 538.894 86.528C540.686 84.8213 541.966 81.792 542.734 77.44C543.587 73.088 544.014 66.944 544.014 59.008C544.014 50.9867 543.587 44.8 542.734 40.448C541.966 36.096 540.686 33.0667 538.894 31.36C537.102 29.6533 534.713 28.8 531.726 28.8C528.739 28.8 526.307 29.6533 524.43 31.36C522.638 33.0667 521.315 36.096 520.462 40.448C519.694 44.8 519.31 50.9867 519.31 59.008C519.31 66.944 519.694 73.088 520.462 77.44C521.315 81.792 522.638 84.8213 524.43 86.528C526.307 88.2347 528.739 89.088 531.726 89.088Z" fill="black"/>
<path d="M422.348 89.7281V88.4481L424.652 87.5521C426.359 86.8694 427.511 86.0161 428.108 84.9921C428.791 83.9681 429.132 82.6027 429.132 80.896V14.08C429.132 12.288 428.791 10.88 428.108 9.85605C427.511 8.83205 426.359 8.02138 424.652 7.42405L422.348 6.52805V5.24805H459.084C469.495 5.24805 477.004 7.16805 481.612 11.008C486.22 14.7627 488.524 19.5414 488.524 25.344C488.524 29.696 486.817 33.664 483.404 37.248C480.076 40.7467 474.316 43.2214 466.124 44.6721C475.511 45.6961 482.38 48.1707 486.732 52.096C491.084 55.936 493.26 60.6294 493.26 66.176C493.26 68.9067 492.663 71.68 491.468 74.496C490.273 77.2267 488.225 79.744 485.324 82.048C482.508 84.3521 478.625 86.2294 473.676 87.68C468.727 89.0454 462.455 89.7281 454.86 89.7281H422.348ZM448.076 44.544H453.58C459.297 44.544 463.393 43.2214 465.868 40.576C468.428 37.9307 469.708 33.3227 469.708 26.7521C469.708 19.9254 468.556 15.0614 466.252 12.16C463.948 9.25871 460.193 7.80804 454.988 7.80804H448.076V44.544ZM448.076 87.1681H454.476C460.876 87.1681 465.612 85.4614 468.684 82.048C471.841 78.6347 473.42 73.3014 473.42 66.048C473.42 59.2214 471.927 54.3574 468.94 51.456C465.953 48.5547 461.047 47.104 454.22 47.104H448.076V87.1681Z" fill="black"/>
<path d="M361.47 26.24C367.017 26.24 371.753 27.392 375.678 29.696C379.603 31.9147 382.59 34.9867 384.638 38.912C386.771 42.752 387.838 47.1467 387.838 52.096C387.838 53.0347 387.795 54.016 387.71 55.04C387.625 55.9787 387.454 56.832 387.198 57.6H349.054C349.139 66.816 350.761 73.472 353.918 77.568C357.161 81.5787 361.939 83.584 368.254 83.584C372.521 83.584 375.977 82.9013 378.622 81.536C381.267 80.1707 383.742 78.1653 386.046 75.52L387.326 76.672C384.681 81.3653 381.139 85.0347 376.702 87.68C372.35 90.3253 367.102 91.648 360.958 91.648C354.899 91.648 349.523 90.368 344.83 87.808C340.137 85.1627 336.467 81.408 333.822 76.544C331.177 71.68 329.854 65.8773 329.854 59.136C329.854 52.1387 331.39 46.208 334.462 41.344C337.534 36.3947 341.459 32.64 346.238 30.08C351.102 27.52 356.179 26.24 361.47 26.24ZM361.086 28.8C358.611 28.8 356.478 29.568 354.686 31.104C352.979 32.5547 351.614 35.2 350.59 39.04C349.651 42.7947 349.139 48.128 349.054 55.04H370.942C371.795 45.7387 371.454 39.04 369.918 34.944C368.382 30.848 365.438 28.8 361.086 28.8Z" fill="black"/>
<path d="M308.827 19.5841C305.926 19.5841 303.451 18.6881 301.403 16.8961C299.44 15.0187 298.459 12.6721 298.459 9.85606C298.459 6.95472 299.44 4.60805 301.403 2.81606C303.451 1.02405 305.926 0.128052 308.827 0.128052C311.728 0.128052 314.16 1.02405 316.123 2.81606C318.086 4.60805 319.067 6.95472 319.067 9.85606C319.067 12.6721 318.086 15.0187 316.123 16.8961C314.16 18.6881 311.728 19.5841 308.827 19.5841ZM293.723 89.7281V88.4481L295.515 87.9361C297.222 87.4241 298.374 86.6561 298.971 85.6321C299.654 84.6081 299.995 83.2427 299.995 81.5361V41.4721C299.995 39.6801 299.654 38.3574 298.971 37.5041C298.374 36.5654 297.222 35.9254 295.515 35.5841L293.723 35.2001V33.9201L317.147 26.3681L318.427 27.6481L318.043 45.8241V81.6641C318.043 83.3707 318.342 84.7361 318.939 85.7601C319.622 86.7841 320.774 87.5521 322.395 88.0641L323.675 88.4481V89.7281H293.723Z" fill="black"/>
<path d="M257.226 89.728V88.448L258.762 87.936C261.834 86.912 263.37 84.7787 263.37 81.536V13.056C263.37 11.3493 263.029 10.0693 262.346 9.216C261.663 8.27733 260.469 7.59467 258.762 7.168L257.098 6.784V5.504L280.522 0L282.058 1.152L281.546 19.072V62.848C281.546 66.0053 281.546 69.1627 281.546 72.32C281.631 75.392 281.674 78.464 281.674 81.536C281.674 83.2427 282.015 84.6507 282.698 85.76C283.381 86.784 284.533 87.552 286.154 88.064L287.818 88.448V89.728H257.226Z" fill="black"/>
<path d="M209.28 91.648C204.331 91.648 200.149 90.24 196.736 87.424C193.408 84.608 191.744 80.5547 191.744 75.264C191.744 71.2533 193.792 67.584 197.888 64.256C201.984 60.8427 208.427 58.2827 217.216 56.576C218.581 56.32 220.117 56.064 221.824 55.808C223.531 55.4667 225.323 55.1253 227.2 54.784V44.672C227.2 38.8693 226.475 34.816 225.024 32.512C223.659 30.1227 221.483 28.928 218.496 28.928C216.448 28.928 214.827 29.6107 213.632 30.976C212.437 32.256 211.669 34.5173 211.328 37.76L211.072 39.168C210.901 42.8373 210.005 45.5253 208.384 47.232C206.763 48.9387 204.757 49.792 202.368 49.792C200.149 49.792 198.315 49.1093 196.864 47.744C195.413 46.3787 194.688 44.544 194.688 42.24C194.688 38.7413 195.883 35.7973 198.272 33.408C200.747 31.0187 203.989 29.2267 208 28.032C212.011 26.8373 216.363 26.24 221.056 26.24C228.651 26.24 234.496 28.1173 238.592 31.872C242.773 35.5413 244.864 41.5573 244.864 49.92V78.208C244.864 82.048 246.656 83.968 250.24 83.968H253.056L254.208 84.992C252.587 87.04 250.795 88.6187 248.832 89.728C246.955 90.8373 244.267 91.392 240.768 91.392C237.013 91.392 234.027 90.5387 231.808 88.832C229.675 87.04 228.267 84.6933 227.584 81.792C225.024 84.5227 222.379 86.8693 219.648 88.832C217.003 90.7093 213.547 91.648 209.28 91.648ZM217.088 83.84C218.795 83.84 220.373 83.456 221.824 82.688C223.36 81.8347 225.152 80.5547 227.2 78.848V57.344C226.347 57.5147 225.493 57.6853 224.64 57.856C223.787 58.0267 222.805 58.1973 221.696 58.368C217.771 59.392 214.613 61.1413 212.224 63.616C209.92 66.0053 208.768 69.248 208.768 73.344C208.768 76.8427 209.579 79.488 211.2 81.28C212.821 82.9867 214.784 83.84 217.088 83.84Z" fill="black"/>
<path d="M168.662 91.648C163.201 91.648 158.934 90.2827 155.862 87.552C152.875 84.8213 151.382 80.4693 151.382 74.496V30.72H142.55V29.44L145.622 28.928C148.267 28.3307 150.529 27.4773 152.406 26.368C154.369 25.2587 156.289 23.7653 158.166 21.888L168.662 10.24H169.942L169.558 28.16H183.894V30.72H169.43V76.8C169.43 79.7867 170.07 82.048 171.35 83.584C172.715 85.12 174.422 85.888 176.47 85.888C178.262 85.888 179.841 85.4613 181.206 84.608C182.571 83.6693 183.937 82.432 185.302 80.896L186.582 82.176C184.875 85.0773 182.529 87.3813 179.542 89.088C176.555 90.7947 172.929 91.648 168.662 91.648Z" fill="black"/>
<path d="M96.7799 91.648C91.8306 91.648 87.6492 90.24 84.2359 87.424C80.9079 84.608 79.2439 80.5547 79.2439 75.264C79.2439 71.2533 81.2919 67.584 85.3879 64.256C89.4839 60.8427 95.9266 58.2827 104.716 56.576C106.081 56.32 107.617 56.064 109.324 55.808C111.031 55.4667 112.823 55.1253 114.7 54.784V44.672C114.7 38.8693 113.975 34.816 112.524 32.512C111.159 30.1227 108.983 28.928 105.996 28.928C103.948 28.928 102.327 29.6107 101.132 30.976C99.9372 32.256 99.1692 34.5173 98.8279 37.76L98.5719 39.168C98.4012 42.8373 97.5052 45.5253 95.8839 47.232C94.2626 48.9387 92.2572 49.792 89.8679 49.792C87.6492 49.792 85.8146 49.1093 84.3639 47.744C82.9132 46.3787 82.1879 44.544 82.1879 42.24C82.1879 38.7413 83.3826 35.7973 85.7719 33.408C88.2466 31.0187 91.4892 29.2267 95.4999 28.032C99.5106 26.8373 103.863 26.24 108.556 26.24C116.151 26.24 121.996 28.1173 126.092 31.872C130.273 35.5413 132.364 41.5573 132.364 49.92V78.208C132.364 82.048 134.156 83.968 137.74 83.968H140.556L141.708 84.992C140.087 87.04 138.295 88.6187 136.332 89.728C134.455 90.8373 131.767 91.392 128.268 91.392C124.513 91.392 121.527 90.5387 119.308 88.832C117.175 87.04 115.767 84.6933 115.084 81.792C112.524 84.5227 109.879 86.8693 107.148 88.832C104.503 90.7093 101.047 91.648 96.7799 91.648ZM104.588 83.84C106.295 83.84 107.873 83.456 109.324 82.688C110.86 81.8347 112.652 80.5547 114.7 78.848V57.344C113.847 57.5147 112.993 57.6853 112.14 57.856C111.287 58.0267 110.305 58.1973 109.196 58.368C105.271 59.392 102.113 61.1413 99.7239 63.616C97.4199 66.0053 96.2679 69.248 96.2679 73.344C96.2679 76.8427 97.0786 79.488 98.6999 81.28C100.321 82.9867 102.284 83.84 104.588 83.84Z" fill="black"/>
<path d="M0.511999 89.7281V88.4481L4.736 87.1681C6.272 86.7414 7.38133 85.9307 8.064 84.7361C8.74667 83.4561 9.088 81.9627 9.088 80.2561V18.688C8.14933 16.64 7.38133 15.104 6.784 14.08C6.272 13.056 5.67467 12.2027 4.992 11.5201C4.30933 10.752 3.37067 9.81338 2.176 8.70405L0 6.52805V5.24805H22.656L65.152 63.232V14.976C65.152 13.2694 64.8533 11.7334 64.256 10.368C63.744 9.00271 62.6347 8.10671 60.928 7.68005L56.704 6.52805V5.24805H75.008V6.52805L71.552 7.68005C70.016 8.19204 69.0773 9.08805 68.736 10.368C68.3947 11.648 68.224 13.1414 68.224 14.848V90.1121H61.056L12.16 22.912V80.2561C12.16 81.9627 12.416 83.4134 12.928 84.608C13.44 85.8027 14.5067 86.6561 16.128 87.1681L19.968 88.4481V89.7281H0.511999Z" fill="black"/>
</svg>
