<svg width="558" height="558" viewBox="0 0 558 558" fill="none" xmlns="http://www.w3.org/2000/svg">
<rect width="558" height="558" rx="20" fill="#EB1F4D"/>
<path d="M291.728 408.363V404.441L298.787 401.696C304.016 399.604 307.546 396.989 309.376 393.852C311.468 390.714 312.514 386.531 312.514 381.302V176.58C312.514 171.089 311.468 166.775 309.376 163.638C307.546 160.5 304.016 158.016 298.787 156.186L291.728 153.441V149.519H404.286C436.184 149.519 459.192 155.402 473.311 167.167C487.43 178.671 494.489 193.313 494.489 211.092C494.489 224.427 489.26 236.585 478.801 247.566C468.605 258.286 450.956 265.868 425.856 270.313C454.617 273.45 475.664 281.033 488.998 293.06C502.333 304.825 509 319.205 509 336.2C509 344.567 507.17 353.064 503.509 361.693C499.849 370.059 493.574 377.772 484.684 384.832C476.056 391.891 464.16 397.643 448.995 402.088C433.831 406.271 414.613 408.363 391.344 408.363H291.728ZM370.558 269.921H387.422C404.939 269.921 417.489 265.868 425.072 257.763C432.915 249.657 436.837 235.539 436.837 215.406C436.837 194.49 433.308 179.587 426.248 170.697C419.189 161.807 407.685 157.363 391.736 157.363H370.558V269.921ZM370.558 400.519H390.167C409.776 400.519 424.287 395.29 433.7 384.832C443.374 374.373 448.211 358.032 448.211 335.808C448.211 314.891 443.635 299.988 434.484 291.099C425.333 282.209 410.299 277.764 389.383 277.764H370.558V400.519Z" fill="#F5F1EE"/>
<path d="M49.5687 408.363V404.441L62.511 400.519C67.2172 399.212 70.6162 396.728 72.7079 393.068C74.7995 389.146 75.8454 384.57 75.8454 379.341V190.699C72.9693 184.424 70.6162 179.717 68.786 176.58C67.2172 173.442 65.387 170.828 63.2953 168.736C61.2037 166.383 58.3276 163.507 54.6672 160.108L48 153.441V149.519H117.417L247.624 327.18V179.325C247.624 174.096 246.709 169.39 244.878 165.206C243.31 161.023 239.911 158.278 234.682 156.97L221.739 153.441V149.519H277.822V153.441L267.233 156.97C262.527 158.539 259.651 161.284 258.605 165.206C257.559 169.128 257.036 173.704 257.036 178.933V409.54H235.074L85.2579 203.641V379.341C85.2579 384.57 86.0422 389.015 87.611 392.675C89.1798 396.336 92.448 398.95 97.4157 400.519L109.181 404.441V408.363H49.5687Z" fill="#F5F1EE"/>
</svg>
